<svg width="194" height="50" viewBox="0 0 194 50" fill="none" xmlns="http://www.w3.org/2000/svg">
<path fill-rule="evenodd" clip-rule="evenodd" d="M67.0807 23.5909L65.3768 26.9375L63.3009 30.8387H60.6651L58.6153 27.0167L56.8317 23.5909H56.7248V33.342H53.0684V15.1836H56.4312L59.7144 21.5875L61.9292 26.0684H62.0896L64.3317 21.4819L67.4807 15.1836H70.8435V33.342H67.1877V23.5909H67.0807Z" fill="#FFFFFE"/>
<path fill-rule="evenodd" clip-rule="evenodd" d="M84.3217 21.6139C84.3217 21.0168 84.2239 20.5117 84.0282 20.0988C83.8319 19.6859 83.5742 19.3477 83.2539 19.0836C82.9336 18.8201 82.5734 18.6269 82.1729 18.5038C81.773 18.3814 81.3594 18.3196 80.9321 18.3196C80.5049 18.3196 80.0867 18.3814 79.6777 18.5038C79.2681 18.6269 78.9034 18.8201 78.5836 19.0836C78.2633 19.3477 78.0051 19.6859 77.8094 20.0988C77.6136 20.5117 77.5158 21.0168 77.5158 21.6139V26.9117C77.5158 27.5089 77.6136 28.0184 77.8094 28.4404C78.0051 28.8617 78.2633 29.2044 78.5836 29.4679C78.9034 29.7319 79.2681 29.9207 79.6777 30.0347C80.0867 30.1493 80.5049 30.2061 80.9321 30.2061C81.3594 30.2061 81.773 30.1493 82.1729 30.0347C82.5734 29.9207 82.9336 29.7319 83.2539 29.4679C83.5742 29.2044 83.8319 28.8617 84.0282 28.4404C84.2239 28.0184 84.3217 27.5089 84.3217 26.9117V21.6139ZM87.9781 27.5437C87.9781 28.528 87.791 29.3887 87.4183 30.1269C87.0457 30.8651 86.5393 31.4887 85.8999 31.9982C85.261 32.5078 84.5106 32.8904 83.6493 33.1448C82.7874 33.3988 81.8777 33.5263 80.9185 33.5263C79.9599 33.5263 79.0496 33.3988 78.1883 33.1448C77.3263 32.8904 76.5765 32.5078 75.9371 31.9982C75.2976 31.4887 74.7913 30.8651 74.4186 30.1269C74.046 29.3887 73.8594 28.528 73.8594 27.5437V20.8757C73.8594 19.91 74.0545 19.0572 74.4454 18.3196C74.8356 17.5814 75.3596 16.9668 76.0173 16.4746C76.6744 15.983 77.4293 15.6139 78.2816 15.3679C79.1338 15.1218 80.0133 14.9988 80.9185 14.9988C81.8248 14.9988 82.7037 15.1308 83.556 15.3943C84.4088 15.6578 85.1626 16.0398 85.8202 16.5409C86.4773 17.0415 87.0013 17.6651 87.3916 18.4117C87.7824 19.1589 87.9781 20.0156 87.9781 20.9814V27.5437Z" fill="#FFFFFE"/>
<path fill-rule="evenodd" clip-rule="evenodd" d="M101.082 27.8207C101.082 27.1218 100.859 26.5583 100.415 26.1302C99.9702 25.7027 99.3563 25.4881 98.5735 25.4881H94.677V30.1004H98.5997C99.4183 30.1004 100.037 29.8954 100.455 29.4847C100.873 29.074 101.082 28.5195 101.082 27.8207ZM100.869 20.4808C100.869 19.8134 100.668 19.3038 100.268 18.9521C99.8678 18.601 99.2403 18.4246 98.3863 18.4246H94.677V22.4044H98.4398C99.205 22.4044 99.8012 22.2291 100.228 21.8774C100.655 21.5263 100.869 21.0606 100.869 20.4808ZM104.952 27.9476C104.952 28.6847 104.836 29.378 104.605 30.0269C104.374 30.6757 104.036 31.246 103.591 31.737C103.146 32.228 102.595 32.619 101.936 32.9083C101.278 33.1976 100.512 33.342 99.6414 33.342H91.02V15.1836H99.2937C100.219 15.1836 101.016 15.3151 101.683 15.5797C102.35 15.8431 102.901 16.2038 103.338 16.6617C103.773 17.1195 104.098 17.6476 104.312 18.246C104.525 18.8443 104.632 19.469 104.632 20.1201C104.632 20.7886 104.449 21.4752 104.085 22.1797C103.719 22.8836 103.146 23.4291 102.364 23.8156C102.808 24.0269 103.191 24.2943 103.511 24.6184C103.831 24.9431 104.098 25.2937 104.312 25.6712C104.525 26.0482 104.685 26.4347 104.792 26.8291C104.899 27.224 104.952 27.5965 104.952 27.9476Z" fill="#FFFFFE"/>
<path fill-rule="evenodd" clip-rule="evenodd" d="M113.84 17.5813C113.679 18.0915 113.452 18.7937 113.159 19.6903C112.866 20.5864 112.554 21.5218 112.225 22.4971C111.896 23.4718 111.58 24.4078 111.277 25.3038C110.974 26.1999 110.735 26.9117 110.557 27.4387H117.229C117.069 26.9117 116.837 26.1999 116.535 25.3038C116.233 24.4078 115.912 23.4718 115.574 22.4971C115.236 21.5218 114.916 20.5864 114.614 19.6903C114.311 18.7937 114.079 18.0915 113.919 17.5813H113.84ZM119.258 33.342C119.008 32.6398 118.768 31.9364 118.537 31.2336C118.305 30.5313 118.065 29.828 117.816 29.1252H109.943L108.502 33.342H106.526C107.594 30.2847 108.657 27.2589 109.716 24.2628C110.774 21.2673 111.838 18.2403 112.906 15.1836H114.88L121.286 33.342H119.258Z" fill="#FFFFFE"/>
<path fill-rule="evenodd" clip-rule="evenodd" d="M123.314 33.342V15.1836H125.182V31.6819H135.324V33.342H123.314Z" fill="#FFFFFE"/>
<path fill-rule="evenodd" clip-rule="evenodd" d="M140.343 33.342H138.474V26.4634C137.549 24.5656 136.623 22.6858 135.698 20.8235C134.773 18.9611 133.839 17.0808 132.896 15.1836H134.951C135.022 15.324 135.165 15.6179 135.378 16.0662C135.592 16.5139 135.84 17.0415 136.125 17.6476C136.41 18.2538 136.717 18.9038 137.046 19.5976C137.375 20.292 137.696 20.9594 138.007 21.6004C138.318 22.242 138.601 22.8263 138.856 23.3533C139.111 23.8802 139.307 24.2763 139.448 24.5392C139.536 24.3465 139.693 24.0038 139.921 23.5117C140.149 23.0201 140.414 22.4572 140.717 21.8246C141.019 21.192 141.334 20.5246 141.664 19.8218C141.993 19.119 142.304 18.4561 142.597 17.8319C142.892 17.2089 143.154 16.6549 143.385 16.1718C143.616 15.6881 143.776 15.3589 143.865 15.1836H145.867L140.343 26.4106V33.342Z" fill="#FFFFFE"/>
<path fill-rule="evenodd" clip-rule="evenodd" d="M154.141 16.8965V33.342H152.272V16.8965H146.721V15.1836H159.639V16.8965H154.141Z" fill="#FFFFFE"/>
<path fill-rule="evenodd" clip-rule="evenodd" d="M162.307 33.3426H164.176V15.1836H162.307V33.3426Z" fill="#FFFFFE"/>
<path fill-rule="evenodd" clip-rule="evenodd" d="M174.317 14.9988C176.274 14.9988 177.929 15.4993 179.282 16.501L178.321 17.9505C177.787 17.5465 177.169 17.2387 176.466 17.028C175.763 16.8173 175.047 16.7117 174.317 16.7117C173.73 16.7117 173.161 16.7999 172.609 16.9752C172.058 17.151 171.559 17.4235 171.114 17.792C170.669 18.1611 170.314 18.6404 170.047 19.2291C169.78 19.8173 169.646 20.5246 169.646 21.3505V27.1488C169.646 27.9746 169.785 28.6819 170.061 29.2701C170.336 29.8595 170.691 30.342 171.128 30.7196C171.564 31.0982 172.058 31.3786 172.609 31.5634C173.161 31.7477 173.712 31.8398 174.264 31.8398C175.011 31.8398 175.741 31.7392 176.452 31.537C177.164 31.3353 177.804 31.0055 178.374 30.5488L179.308 31.9718C178.792 32.3757 178.098 32.7364 177.227 33.0527C176.354 33.3684 175.384 33.5263 174.317 33.5263C173.374 33.5263 172.507 33.3859 171.715 33.105C170.923 32.8241 170.234 32.4201 169.646 31.8926C169.059 31.3656 168.601 30.733 168.272 29.9948C167.942 29.2572 167.778 28.4314 167.778 27.5179V20.955C167.778 20.0589 167.947 19.2465 168.286 18.5173C168.623 17.7881 169.086 17.16 169.673 16.633C170.26 16.1055 170.95 15.7016 171.742 15.4201C172.534 15.1392 173.392 14.9988 174.317 14.9988Z" fill="#FFFFFE"/>
<path fill-rule="evenodd" clip-rule="evenodd" d="M193.854 28.4405C193.854 29.231 193.699 29.9383 193.387 30.5619C193.076 31.1854 192.64 31.713 192.079 32.1433C191.519 32.5742 190.842 32.9074 190.051 33.145C189.259 33.3821 188.383 33.5006 187.422 33.5006C186.194 33.5006 185.051 33.3338 183.992 32.9995C182.934 32.6663 181.906 32.1562 180.91 31.4714L181.898 30.1006C182.716 30.6102 183.596 31.0276 184.54 31.3523C185.482 31.6776 186.452 31.8399 187.448 31.8399C188.783 31.8399 189.86 31.5461 190.678 30.9574C191.496 30.3686 191.906 29.5298 191.906 28.4405C191.906 27.7905 191.763 27.263 191.479 26.859C191.194 26.4551 190.825 26.1253 190.371 25.8703C189.918 25.6158 189.411 25.4186 188.85 25.2776C188.289 25.1371 187.733 25.0141 187.182 24.9085C186.452 24.786 185.745 24.6102 185.06 24.3815C184.375 24.1534 183.766 23.8501 183.232 23.472C182.698 23.0944 182.266 22.6203 181.937 22.0489C181.608 21.4781 181.444 20.7708 181.444 19.927C181.444 19.1894 181.579 18.513 181.85 17.8984C182.121 17.2832 182.512 16.7517 183.024 16.3034C183.536 15.8557 184.152 15.5085 184.873 15.2624C185.594 15.0169 186.408 14.8933 187.315 14.8933C188.33 14.8933 189.326 14.9854 190.304 15.1703C191.283 15.3545 192.209 15.7017 193.08 16.2113L192.226 17.7922C191.443 17.3708 190.625 17.0635 189.77 16.8697C188.916 16.677 188.071 16.5804 187.235 16.5804C186.719 16.5804 186.225 16.6461 185.754 16.7776C185.283 16.9096 184.864 17.1163 184.5 17.3972C184.135 17.6787 183.846 18.0343 183.632 18.4647C183.418 18.8956 183.312 19.4001 183.312 19.9804C183.312 20.5427 183.454 21.0079 183.738 21.377C184.022 21.7461 184.386 22.0534 184.829 22.2995C185.273 22.5456 185.761 22.7388 186.294 22.8793C186.826 23.0203 187.35 23.1427 187.864 23.2484C188.663 23.4236 189.426 23.622 190.154 23.8411C190.881 24.0613 191.516 24.3596 192.057 24.7371C192.598 25.1152 193.033 25.5984 193.362 26.1866C193.69 26.7759 193.854 27.527 193.854 28.4405Z" fill="#FFFFFE"/>
<path fill-rule="evenodd" clip-rule="evenodd" d="M1.61963 12.4169L21.7444 1.59888L22.2906 8.25281L1.61963 12.4169Z" fill="#535072"/>
<path fill-rule="evenodd" clip-rule="evenodd" d="M43.15 12.1858L21.7224 1.46899L22.2908 8.2527L43.15 12.1858Z" fill="#7A7397"/>
<path fill-rule="evenodd" clip-rule="evenodd" d="M23.428 47.859L36.1341 32.0354L43.15 35.2191L23.428 47.859Z" fill="#272643"/>
<path fill-rule="evenodd" clip-rule="evenodd" d="M23.4279 47.8589L10.7223 32.5959L1.6106 35.3027L23.4279 47.8589Z" fill="#27283E"/>
<path fill-rule="evenodd" clip-rule="evenodd" d="M43.1499 12.186V35.2192L36.134 32.0355L43.1499 12.186Z" fill="#2D2D45"/>
<path fill-rule="evenodd" clip-rule="evenodd" d="M1.6197 13.0276L1.6106 35.3029L10.7223 32.5961L1.6197 13.0276Z" fill="#202134"/>
<path fill-rule="evenodd" clip-rule="evenodd" d="M43.15 12.1861L36.1342 32.0355L22.1531 8.25293L43.15 12.1861Z" fill="#42416C"/>
<path fill-rule="evenodd" clip-rule="evenodd" d="M1.61963 12.1535L10.6898 32.5962L22.2906 8.25293L1.61963 12.1535Z" fill="#363257"/>
<path fill-rule="evenodd" clip-rule="evenodd" d="M23.4279 47.859L36.1341 32.0354L10.6899 32.5961L23.4279 47.859Z" fill="#484979"/>
<path fill-rule="evenodd" clip-rule="evenodd" d="M22.2907 8.25293L10.7224 32.5962L36.1341 32.0355L22.2907 8.25293Z" fill="#363356"/>
<path fill-rule="evenodd" clip-rule="evenodd" d="M36.0704 32.8562L36.2365 33.1438L36.4015 32.677L42.0849 35.4084L25.5574 45.95L36.0704 32.8562ZM10.4316 33.1668L10.6751 33.7152L10.81 33.4309L21.41 46.1635L2.77802 35.4404L10.4316 33.1668ZM10.0522 32.3123L2.07883 34.682L2.08679 15.1393L9.60273 31.2983L10.0522 32.3123ZM21.6438 7.90336L4.58035 11.1225L21.3355 2.33707L21.7724 7.66628L21.4743 7.60954L21.6438 7.90336ZM22.9785 7.89381L23.1042 7.62977L22.8124 7.68482L22.4175 2.3792L39.9469 11.1079L22.9785 7.89381ZM36.7161 31.791L42.6817 14.914V34.4972L36.7161 31.791ZM35.1487 32.518L23.4211 47.1236L11.6946 33.0376L35.1487 32.518ZM19.631 9.22415L21.4754 8.8764L10.7115 31.4668L10.4544 30.9146L2.28364 12.4983L19.631 9.22415ZM42.5287 12.5388L36.03 30.9241L23.2954 8.89662L32.5658 10.6511L42.5287 12.5388ZM22.3316 9.25168L35.3348 31.5899L11.4665 32.118L22.3316 9.25168ZM43.6182 35.5298L43.9874 35.2944L43.6182 35.1168V12.3528L43.6876 12.3657L43.6182 12.3315V12.264L43.7706 11.8326L43.303 11.7438L22.1831 1.22808L22.153 0.860103L21.8082 1.041L21.3622 0.819092L21.3946 1.25786L1.46212 11.7118L0.95579 11.8073L1.17312 12.2977L1.12248 12.3247L1.18051 12.3135L1.37906 12.7612L1.1515 12.8107L1.14239 34.9601L0.444336 35.1674L1.14239 35.5697V35.9258L1.55144 35.8045L23.3892 48.3719L23.4365 48.3168L23.4871 48.3719L43.2427 35.7697L43.6182 35.9399V35.5298Z" fill="#FFFFFE"/>
<path fill-rule="evenodd" clip-rule="evenodd" d="M43.7176 12.1859C43.7176 12.4949 43.4633 12.7466 43.1498 12.7466C42.8363 12.7466 42.582 12.4949 42.582 12.1859C42.582 11.8752 42.8363 11.6235 43.1498 11.6235C43.4633 11.6235 43.7176 11.8752 43.7176 12.1859Z" fill="#FFFFFE"/>
<path fill-rule="evenodd" clip-rule="evenodd" d="M43.15 11.8926C42.9873 11.8926 42.8553 12.0241 42.8553 12.1859C42.8553 12.346 42.9873 12.4763 43.15 12.4763C43.3127 12.4763 43.4447 12.346 43.4447 12.1859C43.4447 12.0241 43.3127 11.8926 43.15 11.8926ZM43.15 13.0162C42.6864 13.0162 42.3086 12.6437 42.3086 12.1859C42.3086 11.7263 42.6864 11.3533 43.15 11.3533C43.6137 11.3533 43.9914 11.7263 43.9914 12.1859C43.9914 12.6437 43.6137 13.0162 43.15 13.0162Z" fill="#FFFFFE"/>
<path fill-rule="evenodd" clip-rule="evenodd" d="M43.1499 11.9769C43.0339 11.9769 42.9389 12.0707 42.9389 12.1859C42.9389 12.3005 43.0339 12.3932 43.1499 12.3932C43.2666 12.3932 43.361 12.3005 43.361 12.1859C43.361 12.0707 43.2666 11.9769 43.1499 11.9769ZM43.1499 13.5145C42.4075 13.5145 41.8027 12.9185 41.8027 12.1859C41.8027 11.451 42.4075 10.855 43.1499 10.855C43.8924 10.855 44.4971 11.451 44.4971 12.1859C44.4971 12.9185 43.8924 13.5145 43.1499 13.5145Z" fill="#FFFFFE"/>
<path fill-rule="evenodd" clip-rule="evenodd" d="M43.1498 12.6635C42.883 12.6635 42.6657 12.4495 42.6657 12.186C42.6657 11.9214 42.883 11.7068 43.1498 11.7068C43.4166 11.7068 43.6345 11.9214 43.6345 12.186C43.6345 12.4495 43.4166 12.6635 43.1498 12.6635ZM43.1498 11.1253C42.5581 11.1253 42.0763 11.6012 42.0763 12.186C42.0763 12.7697 42.5581 13.245 43.1498 13.245C43.7421 13.245 44.2234 12.7697 44.2234 12.186C44.2234 11.6012 43.7421 11.1253 43.1498 11.1253ZM43.1498 13.7849C42.256 13.7849 41.5295 13.0675 41.5295 12.186C41.5295 11.3034 42.256 10.5854 43.1498 10.5854C44.043 10.5854 44.7701 11.3034 44.7701 12.186C44.7701 13.0675 44.043 13.7849 43.1498 13.7849Z" fill="#FFFFFE"/>
<path fill-rule="evenodd" clip-rule="evenodd" d="M36.7007 32.0354C36.7007 32.3455 36.4469 32.596 36.134 32.596C35.8194 32.596 35.5657 32.3455 35.5657 32.0354C35.5657 31.7258 35.8194 31.4741 36.134 31.4741C36.4469 31.4741 36.7007 31.7258 36.7007 32.0354Z" fill="#FFFFFE"/>
<path fill-rule="evenodd" clip-rule="evenodd" d="M36.1342 31.7439C35.9714 31.7439 35.8389 31.8748 35.8389 32.0355C35.8389 32.1956 35.9714 32.3259 36.1342 32.3259C36.2957 32.3259 36.4277 32.1956 36.4277 32.0355C36.4277 31.8748 36.2957 31.7439 36.1342 31.7439ZM36.1342 32.8658C35.6699 32.8658 35.2927 32.4928 35.2927 32.0355C35.2927 31.5771 35.6699 31.2046 36.1342 31.2046C36.5972 31.2046 36.9744 31.5771 36.9744 32.0355C36.9744 32.4928 36.5972 32.8658 36.1342 32.8658Z" fill="#FFFFFE"/>
<path fill-rule="evenodd" clip-rule="evenodd" d="M36.1341 31.8265C36.0169 31.8265 35.9224 31.9203 35.9224 32.0355C35.9224 32.1501 36.0169 32.2439 36.1341 32.2439C36.2501 32.2439 36.3446 32.1501 36.3446 32.0355C36.3446 31.9203 36.2501 31.8265 36.1341 31.8265ZM36.1341 33.3658C35.3911 33.3658 34.7869 32.7681 34.7869 32.0355C34.7869 31.3007 35.3911 30.7046 36.1341 30.7046C36.8765 30.7046 37.4801 31.3007 37.4801 32.0355C37.4801 32.7681 36.8765 33.3658 36.1341 33.3658Z" fill="#FFFFFE"/>
<path fill-rule="evenodd" clip-rule="evenodd" d="M36.1339 32.5135C35.866 32.5135 35.6487 32.2989 35.6487 32.0354C35.6487 31.7708 35.866 31.5562 36.1339 31.5562C36.4002 31.5562 36.6175 31.7708 36.6175 32.0354C36.6175 32.2989 36.4002 32.5135 36.1339 32.5135ZM36.1339 30.9747C35.5417 30.9747 35.0604 31.4505 35.0604 32.0354C35.0604 32.6196 35.5417 33.0955 36.1339 33.0955C36.7256 33.0955 37.2069 32.6196 37.2069 32.0354C37.2069 31.4505 36.7256 30.9747 36.1339 30.9747ZM36.1339 33.6354C35.2402 33.6354 34.5137 32.9174 34.5137 32.0354C34.5137 31.1528 35.2402 30.4348 36.1339 30.4348C37.0266 30.4348 37.7531 31.1528 37.7531 32.0354C37.7531 32.9174 37.0266 33.6354 36.1339 33.6354Z" fill="#FFFFFE"/>
<path fill-rule="evenodd" clip-rule="evenodd" d="M43.7176 35.2191C43.7176 35.5275 43.4633 35.7798 43.1498 35.7798C42.8363 35.7798 42.582 35.5275 42.582 35.2191C42.582 34.9084 42.8363 34.6584 43.1498 34.6584C43.4633 34.6584 43.7176 34.9084 43.7176 35.2191Z" fill="#FFFFFE"/>
<path fill-rule="evenodd" clip-rule="evenodd" d="M43.15 34.9276C42.9873 34.9276 42.8553 35.0579 42.8553 35.2186C42.8553 35.3793 42.9873 35.5096 43.15 35.5096C43.3127 35.5096 43.4447 35.3793 43.4447 35.2186C43.4447 35.0579 43.3127 34.9276 43.15 34.9276ZM43.15 36.0495C42.6864 36.0495 42.3086 35.6765 42.3086 35.2186C42.3086 34.7607 42.6864 34.3877 43.15 34.3877C43.6137 34.3877 43.9914 34.7607 43.9914 35.2186C43.9914 35.6765 43.6137 36.0495 43.15 36.0495Z" fill="#FFFFFE"/>
<path fill-rule="evenodd" clip-rule="evenodd" d="M43.1499 35.0096C43.0339 35.0096 42.9389 35.1034 42.9389 35.2192C42.9389 35.3338 43.0339 35.4282 43.1499 35.4282C43.2666 35.4282 43.361 35.3338 43.361 35.2192C43.361 35.1034 43.2666 35.0096 43.1499 35.0096ZM43.1499 36.5478C42.4075 36.5478 41.8027 35.9518 41.8027 35.2192C41.8027 34.486 42.4075 33.8894 43.1499 33.8894C43.8924 33.8894 44.4971 34.486 44.4971 35.2192C44.4971 35.9518 43.8924 36.5478 43.1499 36.5478Z" fill="#FFFFFE"/>
<path fill-rule="evenodd" clip-rule="evenodd" d="M43.1498 35.6978C42.883 35.6978 42.6657 35.4826 42.6657 35.2186C42.6657 34.9545 42.883 34.7399 43.1498 34.7399C43.4166 34.7399 43.6345 34.9545 43.6345 35.2186C43.6345 35.4826 43.4166 35.6978 43.1498 35.6978ZM43.1498 34.159C42.5581 34.159 42.0763 34.6343 42.0763 35.2186C42.0763 35.8028 42.5581 36.2776 43.1498 36.2776C43.7421 36.2776 44.2234 35.8028 44.2234 35.2186C44.2234 34.6343 43.7421 34.159 43.1498 34.159ZM43.1498 36.8175C42.256 36.8175 41.5295 36.1006 41.5295 35.2186C41.5295 34.3366 42.256 33.6191 43.1498 33.6191C44.043 33.6191 44.7701 34.3366 44.7701 35.2186C44.7701 36.1006 44.043 36.8175 43.1498 36.8175Z" fill="#FFFFFE"/>
<path fill-rule="evenodd" clip-rule="evenodd" d="M23.9957 47.4747C23.9957 47.7837 23.7414 48.0354 23.428 48.0354C23.1139 48.0354 22.8596 47.7837 22.8596 47.4747C22.8596 47.1657 23.1139 46.9141 23.428 46.9141C23.7414 46.9141 23.9957 47.1657 23.9957 47.4747Z" fill="#FFFFFE"/>
<path fill-rule="evenodd" clip-rule="evenodd" d="M23.4278 47.1836C23.2657 47.1836 23.1332 47.3145 23.1332 47.4746C23.1332 47.6353 23.2657 47.7662 23.4278 47.7662C23.59 47.7662 23.7225 47.6353 23.7225 47.4746C23.7225 47.3145 23.59 47.1836 23.4278 47.1836ZM23.4278 48.3061C22.9636 48.3061 22.5864 47.9325 22.5864 47.4746C22.5864 47.0173 22.9636 46.6443 23.4278 46.6443C23.8915 46.6443 24.2687 47.0173 24.2687 47.4746C24.2687 47.9325 23.8915 48.3061 23.4278 48.3061Z" fill="#FFFFFE"/>
<path fill-rule="evenodd" clip-rule="evenodd" d="M23.428 47.2656C23.3114 47.2656 23.2164 47.3583 23.2164 47.4746C23.2164 47.5892 23.3114 47.6819 23.428 47.6819C23.5446 47.6819 23.6396 47.5892 23.6396 47.4746C23.6396 47.3583 23.5446 47.2656 23.428 47.2656ZM23.428 48.8038C22.6856 48.8038 22.0808 48.2078 22.0808 47.4746C22.0808 46.7398 22.6856 46.1443 23.428 46.1443C24.171 46.1443 24.7741 46.7398 24.7741 47.4746C24.7741 48.2078 24.171 48.8038 23.428 48.8038Z" fill="#FFFFFE"/>
<path fill-rule="evenodd" clip-rule="evenodd" d="M23.4278 47.9524C23.1604 47.9524 22.9425 47.7383 22.9425 47.4748C22.9425 47.2102 23.1604 46.9962 23.4278 46.9962C23.6952 46.9962 23.9125 47.2102 23.9125 47.4748C23.9125 47.7383 23.6952 47.9524 23.4278 47.9524ZM23.4278 46.4142C22.8361 46.4142 22.3543 46.89 22.3543 47.4748C22.3543 48.0585 22.8361 48.5344 23.4278 48.5344C24.0195 48.5344 24.5008 48.0585 24.5008 47.4748C24.5008 46.89 24.0195 46.4142 23.4278 46.4142ZM23.4278 49.0737C22.5346 49.0737 21.8081 48.3563 21.8081 47.4748C21.8081 46.5922 22.5346 45.8743 23.4278 45.8743C24.321 45.8743 25.0475 46.5922 25.0475 47.4748C25.0475 48.3563 24.321 49.0737 23.4278 49.0737Z" fill="#FFFFFE"/>
<path fill-rule="evenodd" clip-rule="evenodd" d="M11.2895 32.5962C11.2895 32.9063 11.0352 33.1569 10.7223 33.1569C10.4083 33.1569 10.1545 32.9063 10.1545 32.5962C10.1545 32.2866 10.4083 32.0366 10.7223 32.0366C11.0352 32.0366 11.2895 32.2866 11.2895 32.5962Z" fill="#FFFFFE"/>
<path fill-rule="evenodd" clip-rule="evenodd" d="M10.7224 32.3067C10.5603 32.3067 10.4278 32.4359 10.4278 32.5961C10.4278 32.7562 10.5603 32.8871 10.7224 32.8871C10.8846 32.8871 11.0166 32.7562 11.0166 32.5961C11.0166 32.4359 10.8846 32.3067 10.7224 32.3067ZM10.7224 33.4264C10.2588 33.4264 9.88159 33.0539 9.88159 32.5961C9.88159 32.1388 10.2588 31.7668 10.7224 31.7668C11.1861 31.7668 11.5627 32.1388 11.5627 32.5961C11.5627 33.0539 11.1861 33.4264 10.7224 33.4264Z" fill="#FFFFFE"/>
<path fill-rule="evenodd" clip-rule="evenodd" d="M10.7224 32.3882C10.6057 32.3882 10.5107 32.4826 10.5107 32.5961C10.5107 32.7124 10.6057 32.805 10.7224 32.805C10.839 32.805 10.9334 32.7124 10.9334 32.5961C10.9334 32.4826 10.839 32.3882 10.7224 32.3882ZM10.7224 33.9264C9.97992 33.9264 9.37573 33.3303 9.37573 32.5961C9.37573 31.8629 9.97992 31.2668 10.7224 31.2668C11.4648 31.2668 12.0684 31.8629 12.0684 32.5961C12.0684 33.3303 11.4648 33.9264 10.7224 33.9264Z" fill="#FFFFFE"/>
<path fill-rule="evenodd" clip-rule="evenodd" d="M10.7222 33.0752C10.4548 33.0752 10.237 32.8601 10.237 32.596C10.237 32.332 10.4548 32.1185 10.7222 32.1185C10.9896 32.1185 11.207 32.332 11.207 32.596C11.207 32.8601 10.9896 33.0752 10.7222 33.0752ZM10.7222 31.5365C10.1306 31.5365 9.6487 32.0118 9.6487 32.596C9.6487 33.1803 10.1306 33.6561 10.7222 33.6561C11.3139 33.6561 11.7946 33.1803 11.7946 32.596C11.7946 32.0118 11.3139 31.5365 10.7222 31.5365ZM10.7222 34.196C9.82904 34.196 9.10254 33.478 9.10254 32.596C9.10254 31.714 9.82904 30.9966 10.7222 30.9966C11.6149 30.9966 12.3414 31.714 12.3414 32.596C12.3414 33.478 11.6149 34.196 10.7222 34.196Z" fill="#FFFFFE"/>
<path fill-rule="evenodd" clip-rule="evenodd" d="M2.18813 12.1534C2.18813 12.4624 1.93325 12.7124 1.61978 12.7124C1.30631 12.7124 1.052 12.4624 1.052 12.1534C1.052 11.8427 1.30631 11.5911 1.61978 11.5911C1.93325 11.5911 2.18813 11.8427 2.18813 12.1534Z" fill="#FFFFFE"/>
<path fill-rule="evenodd" clip-rule="evenodd" d="M1.62023 11.8606C1.45696 11.8606 1.32554 11.9921 1.32554 12.1533C1.32554 12.3134 1.45696 12.4426 1.62023 12.4426C1.78237 12.4426 1.91436 12.3134 1.91436 12.1533C1.91436 11.9921 1.78237 11.8606 1.62023 11.8606ZM1.62023 12.9825C1.156 12.9825 0.778809 12.6106 0.778809 12.1533C0.778809 11.6943 1.156 11.3213 1.62023 11.3213C2.0839 11.3213 2.46109 11.6943 2.46109 12.1533C2.46109 12.6106 2.0839 12.9825 1.62023 12.9825Z" fill="#FFFFFE"/>
<path fill-rule="evenodd" clip-rule="evenodd" d="M1.61981 11.9427C1.50319 11.9427 1.40818 12.0371 1.40818 12.1534C1.40818 12.268 1.50319 12.3613 1.61981 12.3613C1.73644 12.3613 1.83145 12.268 1.83145 12.1534C1.83145 12.0371 1.73644 11.9427 1.61981 11.9427ZM1.61981 13.4826C0.877381 13.4826 0.273193 12.8849 0.273193 12.1534C0.273193 11.4186 0.877381 10.8225 1.61981 10.8225C2.36225 10.8225 2.96644 11.4186 2.96644 12.1534C2.96644 12.8849 2.36225 13.4826 1.61981 13.4826Z" fill="#FFFFFE"/>
<path fill-rule="evenodd" clip-rule="evenodd" d="M1.62027 12.6308C1.35231 12.6308 1.13499 12.4162 1.13499 12.1533C1.13499 11.8881 1.35231 11.673 1.62027 11.673C1.88709 11.673 2.10442 11.8881 2.10442 12.1533C2.10442 12.4162 1.88709 12.6308 1.62027 12.6308ZM1.62027 11.0926C1.02803 11.0926 0.546727 11.5685 0.546727 12.1533C0.546727 12.7376 1.02803 13.2123 1.62027 13.2123C2.21194 13.2123 2.69324 12.7376 2.69324 12.1533C2.69324 11.5685 2.21194 11.0926 1.62027 11.0926ZM1.62027 13.7522C0.726505 13.7522 0 13.0348 0 12.1533C0 11.2707 0.726505 10.5527 1.62027 10.5527C2.5129 10.5527 3.23997 11.2707 3.23997 12.1533C3.23997 13.0348 2.5129 13.7522 1.62027 13.7522Z" fill="#FFFFFE"/>
<path fill-rule="evenodd" clip-rule="evenodd" d="M22.858 8.25281C22.858 8.5618 22.6031 8.81236 22.2908 8.81236C21.9761 8.81236 21.7224 8.5618 21.7224 8.25281C21.7224 7.94214 21.9761 7.69214 22.2908 7.69214C22.6031 7.69214 22.858 7.94214 22.858 8.25281Z" fill="#FFFFFE"/>
<path fill-rule="evenodd" clip-rule="evenodd" d="M22.2907 7.96225C22.128 7.96225 21.9955 8.09203 21.9955 8.2527C21.9955 8.41225 22.128 8.54259 22.2907 8.54259C22.4529 8.54259 22.5843 8.41225 22.5843 8.2527C22.5843 8.09203 22.4529 7.96225 22.2907 7.96225ZM22.2907 9.08248C21.8265 9.08248 21.4487 8.71 21.4487 8.2527C21.4487 7.7954 21.8265 7.42236 22.2907 7.42236C22.7538 7.42236 23.131 7.7954 23.131 8.2527C23.131 8.71 22.7538 9.08248 22.2907 9.08248Z" fill="#FFFFFE"/>
<path fill-rule="evenodd" clip-rule="evenodd" d="M22.2905 8.04371C22.1734 8.04371 22.0789 8.13809 22.0789 8.2527C22.0789 8.36731 22.1734 8.46057 22.2905 8.46057C22.4066 8.46057 22.501 8.36731 22.501 8.2527C22.501 8.13809 22.4066 8.04371 22.2905 8.04371ZM22.2905 9.5836C21.547 9.5836 20.9434 8.98585 20.9434 8.2527C20.9434 7.51843 21.547 6.92236 22.2905 6.92236C23.0324 6.92236 23.6366 7.51843 23.6366 8.2527C23.6366 8.98585 23.0324 9.5836 22.2905 9.5836Z" fill="#FFFFFE"/>
<path fill-rule="evenodd" clip-rule="evenodd" d="M22.2907 8.73043C22.0233 8.73043 21.8054 8.51639 21.8054 8.25291C21.8054 7.98886 22.0233 7.77425 22.2907 7.77425C22.5575 7.77425 22.7748 7.98886 22.7748 8.25291C22.7748 8.51639 22.5575 8.73043 22.2907 8.73043ZM22.2907 7.19223C21.699 7.19223 21.2171 7.66864 21.2171 8.25291C21.2171 8.83774 21.699 9.31358 22.2907 9.31358C22.8824 9.31358 23.3631 8.83774 23.3631 8.25291C23.3631 7.66864 22.8824 7.19223 22.2907 7.19223ZM22.2907 9.85347C21.3969 9.85347 20.6704 9.13549 20.6704 8.25291C20.6704 7.37032 21.3969 6.65234 22.2907 6.65234C23.1833 6.65234 23.9098 7.37032 23.9098 8.25291C23.9098 9.13549 23.1833 9.85347 22.2907 9.85347Z" fill="#FFFFFE"/>
<path fill-rule="evenodd" clip-rule="evenodd" d="M22.3128 1.59883C22.3128 1.90951 22.0585 2.15951 21.745 2.15951C21.4316 2.15951 21.1772 1.90951 21.1772 1.59883C21.1772 1.28984 21.4316 1.0376 21.745 1.0376C22.0585 1.0376 22.3128 1.28984 22.3128 1.59883Z" fill="#FFFFFE"/>
<path fill-rule="evenodd" clip-rule="evenodd" d="M21.7452 1.30739C21.583 1.30739 21.4505 1.43829 21.4505 1.5984C21.4505 1.75852 21.583 1.88941 21.7452 1.88941C21.9073 1.88941 22.0393 1.75852 22.0393 1.5984C22.0393 1.43829 21.9073 1.30739 21.7452 1.30739ZM21.7452 2.4293C21.2815 2.4293 20.9043 2.05627 20.9043 1.5984C20.9043 1.14054 21.2815 0.768066 21.7452 0.768066C22.2088 0.768066 22.586 1.14054 22.586 1.5984C22.586 2.05627 22.2088 2.4293 21.7452 2.4293Z" fill="#FFFFFE"/>
<path fill-rule="evenodd" clip-rule="evenodd" d="M21.7451 1.39C21.6291 1.39 21.5335 1.48382 21.5335 1.59899C21.5335 1.7136 21.6291 1.80742 21.7451 1.80742C21.8618 1.80742 21.9568 1.7136 21.9568 1.59899C21.9568 1.48382 21.8618 1.39 21.7451 1.39ZM21.7451 2.92933C21.0027 2.92933 20.3979 2.33213 20.3979 1.59899C20.3979 0.865843 21.0027 0.269775 21.7451 0.269775C22.4881 0.269775 23.0918 0.865843 23.0918 1.59899C23.0918 2.33213 22.4881 2.92933 21.7451 2.92933Z" fill="#FFFFFE"/>
<path fill-rule="evenodd" clip-rule="evenodd" d="M21.745 2.07753C21.4776 2.07753 21.2603 1.86236 21.2603 1.59831C21.2603 1.33427 21.4776 1.11966 21.745 1.11966C22.0118 1.11966 22.2297 1.33427 22.2297 1.59831C22.2297 1.86236 22.0118 2.07753 21.745 2.07753ZM21.745 0.539888C21.1534 0.539888 20.6715 1.01461 20.6715 1.59831C20.6715 2.18371 21.1534 2.65955 21.745 2.65955C22.3373 2.65955 22.8186 2.18371 22.8186 1.59831C22.8186 1.01461 22.3373 0.539888 21.745 0.539888ZM21.745 3.19888C20.8513 3.19888 20.1248 2.48146 20.1248 1.59831C20.1248 0.716854 20.8513 0 21.745 0C22.6382 0 23.3647 0.716854 23.3647 1.59831C23.3647 2.48146 22.6382 3.19888 21.745 3.19888Z" fill="#FFFFFE"/>
<path fill-rule="evenodd" clip-rule="evenodd" d="M2.3565 35.3027C2.3565 35.6134 2.10277 35.8634 1.78872 35.8634C1.47525 35.8634 1.22095 35.6134 1.22095 35.3027C1.22095 34.9932 1.47525 34.7432 1.78872 34.7432C2.10277 34.7432 2.3565 34.9932 2.3565 35.3027Z" fill="#FFFFFE"/>
<path fill-rule="evenodd" clip-rule="evenodd" d="M1.78869 35.013C1.62655 35.013 1.49399 35.1434 1.49399 35.3029C1.49399 35.463 1.62655 35.5939 1.78869 35.5939C1.9514 35.5939 2.08339 35.463 2.08339 35.3029C2.08339 35.1434 1.9514 35.013 1.78869 35.013ZM1.78869 36.1333C1.32503 36.1333 0.947266 35.7602 0.947266 35.3029C0.947266 34.8451 1.32503 34.4731 1.78869 34.4731C2.25236 34.4731 2.63012 34.8451 2.63012 35.3029C2.63012 35.7602 2.25236 36.1333 1.78869 36.1333Z" fill="#FFFFFE"/>
<path fill-rule="evenodd" clip-rule="evenodd" d="M1.78876 35.0955C1.6727 35.0955 1.57769 35.1877 1.57769 35.3028C1.57769 35.4186 1.6727 35.5113 1.78876 35.5113C1.90539 35.5113 1.99983 35.4186 1.99983 35.3028C1.99983 35.1877 1.90539 35.0955 1.78876 35.0955ZM1.78876 36.6332C1.04576 36.6332 0.442139 36.0371 0.442139 35.3028C0.442139 34.5691 1.04576 33.9736 1.78876 33.9736C2.53119 33.9736 3.13538 34.5691 3.13538 35.3028C3.13538 36.0371 2.53119 36.6332 1.78876 36.6332Z" fill="#FFFFFE"/>
<path fill-rule="evenodd" clip-rule="evenodd" d="M1.78865 35.7814C1.52183 35.7814 1.3045 35.5668 1.3045 35.3027C1.3045 35.0393 1.52183 34.8252 1.78865 34.8252C2.05604 34.8252 2.27336 35.0393 2.27336 35.3027C2.27336 35.5668 2.05604 35.7814 1.78865 35.7814ZM1.78865 34.2432C1.19697 34.2432 0.715673 34.719 0.715673 35.3027C0.715673 35.8876 1.19697 36.3634 1.78865 36.3634C2.38089 36.3634 2.86219 35.8876 2.86219 35.3027C2.86219 34.719 2.38089 34.2432 1.78865 34.2432ZM1.78865 36.9033C0.896019 36.9033 0.168945 36.1848 0.168945 35.3027C0.168945 34.4213 0.896019 33.7039 1.78865 33.7039C2.68184 33.7039 3.40835 34.4213 3.40835 35.3027C3.40835 36.1848 2.68184 36.9033 1.78865 36.9033Z" fill="#FFFFFE"/>
<path fill-rule="evenodd" clip-rule="evenodd" d="M11.1411 32.3427L23.4212 47.0933L35.7006 31.7995L42.5043 12.5523L22.2907 8.74328L2.31158 12.5113L11.1411 32.3427ZM23.4354 48.6242L10.277 32.7899L0.927979 11.7944L22.2907 7.76294L22.3812 7.78036L43.7957 11.8163L36.5665 32.2708L36.5153 32.3337L23.4354 48.6242Z" fill="#FFFFFE"/>
<path fill-rule="evenodd" clip-rule="evenodd" d="M11.3759 32.1999L23.4176 46.6639L35.4581 31.6673L42.1417 12.7583L22.2906 9.01732L2.69997 12.7123L11.3759 32.1999ZM23.425 47.5229L10.8906 32.4516L1.92283 12.3095L22.2906 8.46789L22.3418 8.47744L42.8665 12.3454L35.9149 31.9673L23.425 47.5229ZM10.5117 32.6477L23.4312 48.1948L36.324 32.1375L43.4331 12.0229L22.2894 8.03755L1.31579 11.9954L10.5117 32.6477ZM23.4386 49.0544L10.0265 32.8988L0.539795 11.5926L22.2917 7.48755L22.4345 7.51564L44.1579 11.6095L36.7791 32.4398L36.7279 32.5033L23.4386 49.0544Z" fill="#FFFFFE"/>
<path fill-rule="evenodd" clip-rule="evenodd" d="M26.1216 19.8242L26.0477 19.9793C25.7086 20.6939 25.357 21.418 24.9952 22.1501C24.6316 22.8821 24.2715 23.6091 23.9108 24.34L23.0216 26.2079L22.7548 26.7338C22.5955 26.4197 22.4396 26.104 22.2877 25.7877L21.5845 24.3366C21.2255 23.6091 20.8643 22.8843 20.5008 22.1574C20.1355 21.4388 19.7765 20.7135 19.4187 19.977L19.3447 19.8242H18.22V29.9973H19.446V22.7444L22.3179 28.4574H23.2247L23.2992 28.3046C23.5621 27.7652 23.8255 27.231 24.0861 26.7023L24.1117 26.6501C24.3813 26.1068 24.6607 25.5456 24.9576 24.963L25.1346 24.5967C25.3212 24.2119 25.5106 23.8208 25.6989 23.4214C25.7917 23.2304 25.885 23.0355 25.98 22.8371V29.9973H27.2071V19.8242H26.1216Z" fill="#FFFFFE"/>
</svg>